<?xml version="1.0" encoding="UTF-8"?>
<!DOCTYPE svg PUBLIC "-//W3C//DTD SVG 1.1//EN" "http://www.w3.org/Graphics/SVG/1.1/DTD/svg11.dtd">
<!-- Creator: CorelDRAW 2023 -->
<svg xmlns="http://www.w3.org/2000/svg" xml:space="preserve" width="210mm" height="297mm" version="1.1" style="shape-rendering:geometricPrecision; text-rendering:geometricPrecision; image-rendering:optimizeQuality; fill-rule:evenodd; clip-rule:evenodd"
viewBox="0 0 21000 29700"
 xmlns:xlink="http://www.w3.org/1999/xlink"
 xmlns:xodm="http://www.corel.com/coreldraw/odm/2003">
 <defs>
  <style type="text/css">
   <![CDATA[
    .fil1 {fill:#2564AD}
    .fil0 {fill:#2564AD;fill-rule:nonzero}
    .fil2 {fill:white;fill-rule:nonzero}
   ]]>
  </style>
 </defs>
 <g id="Katman_x0020_1">
  <metadata id="CorelCorpID_0Corel-Layer"/>
  <g id="_3065085702240">
   <g>
    <path class="fil0" d="M7683.98 6086.46c145.37,131.27 156.8,355.54 25.54,500.91 -131.26,145.37 -355.53,156.8 -500.9,25.53l475.36 -526.44zm-2531.74 -266.52l0 -709.3 0 0 90.77 1.08 90.3 3.22 89.77 5.34 89.26 7.42 88.72 9.51 88.08 11.56 87.48 13.57 86.83 15.58 86.12 17.54 85.45 19.5 84.71 21.43 83.94 23.32 83.17 25.2 82.33 27.04 81.52 28.87 80.64 30.68 79.74 32.43 78.85 34.2 77.89 35.91 76.92 37.61 75.97 39.29 74.93 40.94 73.89 42.55 72.85 44.16 71.74 45.74 70.62 47.27 69.51 48.79 68.37 50.32 67.16 51.78 65.98 53.24 64.75 54.67 63.48 56.06 -475.36 526.44 -51.72 -45.66 -52.69 -44.51 -53.7 -43.32 -54.68 -42.16 -55.61 -40.92 -56.55 -39.71 -57.48 -38.47 -58.34 -37.18 -59.21 -35.9 -60.05 -34.59 -60.89 -33.26 -61.67 -31.91 -62.48 -30.53 -63.25 -29.17 -63.97 -27.74 -64.72 -26.33 -65.42 -24.88 -66.1 -23.41 -66.79 -21.94 -67.41 -20.44 -68.06 -18.9 -68.67 -17.37 -69.27 -15.8 -69.88 -14.24 -70.41 -12.64 -70.96 -11.01 -71.5 -9.38 -71.98 -7.71 -72.52 -6.04 -73.01 -4.34 -73.46 -2.62 -73.93 -0.88 0 0zm-3073.23 3073.24l-709.3 0 0 0 4.93 -193.93 14.65 -191.65 24.14 -189.03 33.39 -186.1 42.39 -182.9 51.15 -179.46 59.66 -175.74 67.94 -171.77 75.95 -167.55 83.72 -163.07 91.25 -158.39 98.53 -153.43 105.56 -148.26 112.38 -142.87 118.92 -137.22 125.26 -131.36 131.36 -125.26 137.22 -118.92 142.87 -112.39 148.27 -105.56 153.43 -98.52 158.38 -91.24 163.07 -83.71 167.55 -75.97 171.77 -67.93 175.74 -59.67 179.44 -51.14 182.91 -42.4 186.11 -33.38 189 -24.14 191.67 -14.66 193.92 -4.92 0 709.3 -157.96 4.02 -155.71 11.9 -153.4 19.6 -150.93 27.08 -148.29 34.38 -145.5 41.48 -142.5 48.39 -139.35 55.11 -135.99 61.65 -132.45 68.01 -128.72 74.16 -124.77 80.12 -120.63 85.88 -116.27 91.45 -111.72 96.84 -106.96 102 -102 106.96 -96.84 111.72 -91.46 116.27 -85.88 120.64 -80.13 124.77 -74.15 128.71 -68 132.45 -61.65 135.99 -55.12 139.35 -48.38 142.5 -41.49 145.5 -34.37 148.3 -27.09 150.94 -19.6 153.39 -11.89 155.71 -4.03 157.97 0 0zm3073.23 3073.25l0 709.3 0 0 -193.92 -4.93 -191.66 -14.64 -189.01 -24.15 -186.11 -33.38 -182.91 -42.4 -179.44 -51.14 -175.75 -59.68 -171.76 -67.93 -167.55 -75.95 -163.07 -83.72 -158.38 -91.24 -153.44 -98.53 -148.26 -105.56 -142.87 -112.38 -137.23 -118.94 -131.35 -125.25 -125.26 -131.36 -118.92 -137.22 -112.38 -142.87 -105.56 -148.26 -98.53 -153.43 -91.25 -158.4 -83.72 -163.08 -75.94 -167.53 -67.95 -171.77 -59.66 -175.75 -51.15 -179.44 -42.39 -182.91 -33.39 -186.1 -24.14 -189.03 -14.65 -191.66 -4.93 -193.92 709.3 0 4.03 157.96 11.89 155.72 19.6 153.39 27.09 150.94 34.37 148.29 41.49 145.5 48.38 142.51 55.11 139.33 61.66 136.01 68 132.46 74.15 128.7 80.13 124.77 85.88 120.64 91.46 116.27 96.84 111.72 102 106.96 106.97 102.01 111.71 96.84 116.27 91.44 120.64 85.9 124.76 80.11 128.72 74.16 132.45 68 135.99 61.65 139.36 55.13 142.49 48.38 145.5 41.48 148.29 34.38 150.93 27.08 153.39 19.59 155.72 11.9 157.96 4.03 0 0zm107.23 -1.85l24.5 708.88 -8.24 0.28 -8.17 0.25 -8.17 0.24 -8.4 0.23 -8.17 0.19 -7.94 0.19 -8.41 0.17 -8.43 0.15 -7.94 0.13 -8.19 0.12 -8.43 0.1 -8.19 0.08 -8.2 0.06 -8.44 0.05 -8.2 0.02 -8.21 0.01 0 -709.3 6.79 -0.01 6.78 -0.02 6.54 -0.03 6.78 -0.06 6.77 -0.06 6.53 -0.08 6.75 -0.1 7 -0.11 6.51 -0.11 6.51 -0.15 6.98 -0.15 6.73 -0.17 6.5 -0.17 6.73 -0.2 6.71 -0.21 6.62 -0.22zm0 0c195.75,-6.76 359.93,146.44 366.69,342.19 6.76,195.75 -146.44,359.93 -342.19,366.69l-24.5 -708.88z"/>
   </g>
   <g>
    <path class="fil0" d="M16849.06 7757.93c-74.54,181.12 -281.82,267.52 -462.94,192.97 -181.12,-74.55 -267.52,-281.83 -192.98,-462.95l655.92 269.98zm-329.46 -1925.93l709.3 0 0 0 -0.4 63.68 -1.18 63.49 -1.95 63.32 -2.74 63.17 -3.52 62.95 -4.28 62.74 -5.04 62.58 -5.81 62.36 -6.55 62.15 -7.32 61.93 -8.05 61.68 -8.78 61.47 -9.54 61.28 -10.26 61.03 -10.99 60.79 -11.71 60.5 -12.43 60.28 -13.14 60.01 -13.85 59.76 -14.55 59.48 -15.25 59.23 -15.96 58.96 -16.62 58.64 -17.32 58.38 -18 58.07 -18.67 57.79 -19.34 57.47 -20.01 57.18 -20.66 56.87 -21.33 56.56 -21.97 56.21 -22.62 55.92 -655.92 -269.98 19.44 -48.04 18.89 -48.35 18.33 -48.6 17.76 -48.85 17.19 -49.14 16.62 -49.41 16.05 -49.65 15.46 -49.91 14.88 -50.14 14.3 -50.42 13.7 -50.62 13.09 -50.87 12.51 -51.12 11.89 -51.34 11.3 -51.57 10.67 -51.78 10.07 -52.04 9.45 -52.21 8.82 -52.43 8.18 -52.62 7.56 -52.87 6.93 -53.08 6.28 -53.25 5.65 -53.45 4.99 -53.62 4.34 -53.82 3.68 -54.02 3.02 -54.21 2.36 -54.35 1.69 -54.54 1.02 -54.75 0.34 -54.88 0 0zm-4373.43 -4373.48l0 -709.3 0 0 260.67 6.62 257.53 19.7 253.95 32.43 250.01 44.85 245.74 56.95 241.07 68.73 236.09 80.15 230.77 91.27 225.1 102.05 219.13 112.49 212.83 122.62 206.19 132.4 199.28 141.88 192 151.02 184.44 159.85 176.56 168.36 168.36 176.56 159.85 184.44 151.03 192.02 141.86 199.25 132.41 206.2 122.62 212.83 112.49 219.14 102.05 225.11 91.27 230.77 80.15 236.09 68.73 241.08 56.95 245.74 44.85 250.01 32.43 253.96 19.69 257.54 6.63 260.67 -709.3 0 -5.71 -224.69 -16.95 -221.6 -27.89 -218.36 -38.55 -214.85 -48.93 -211.1 -59.05 -207.12 -68.89 -202.87 -78.45 -198.35 -87.75 -193.57 -96.77 -188.5 -105.52 -183.15 -114.01 -177.54 -122.2 -171.63 -130.11 -165.42 -137.75 -158.94 -145.1 -152.16 -152.16 -145.1 -158.94 -137.75 -165.42 -130.12 -171.62 -122.2 -177.53 -114 -183.15 -105.52 -188.51 -96.77 -193.56 -87.75 -198.35 -78.45 -202.87 -68.89 -207.11 -59.05 -211.1 -48.93 -214.85 -38.55 -218.35 -27.89 -221.59 -16.94 -224.69 -5.72 0 0zm-4373.46 4373.48l-709.3 0 0 0 6.63 -260.67 19.69 -257.54 32.43 -253.96 44.85 -250.01 56.95 -245.74 68.73 -241.08 80.15 -236.09 91.27 -230.77 102.05 -225.11 112.49 -219.14 122.62 -212.83 132.41 -206.2 141.86 -199.25 151.03 -192.02 159.85 -184.44 168.36 -176.56 176.56 -168.36 184.45 -159.85 192 -151.02 199.27 -141.88 206.2 -132.41 212.82 -122.61 219.13 -112.49 225.11 -102.05 230.77 -91.27 236.09 -80.15 241.08 -68.73 245.74 -56.95 250.01 -44.85 253.95 -32.43 257.54 -19.7 260.67 -6.62 0 709.3 -224.69 5.72 -221.6 16.94 -218.35 27.89 -214.85 38.55 -211.1 48.93 -207.12 59.05 -202.87 68.89 -198.35 78.45 -193.57 87.75 -188.49 96.77 -183.16 105.53 -177.54 113.99 -171.61 122.2 -165.44 130.12 -158.93 137.75 -152.16 145.1 -145.1 152.16 -137.75 158.94 -130.11 165.42 -122.2 171.63 -114.01 177.54 -105.52 183.15 -96.77 188.5 -87.75 193.57 -78.45 198.35 -68.89 202.87 -59.05 207.12 -48.93 211.1 -38.55 214.85 -27.89 218.36 -16.95 221.6 -5.71 224.69 0 0zm26.13 479.02l-705.08 77.32 -1.85 -17.16 -1.79 -17.09 -1.74 -17.21 -1.68 -17.23 -1.63 -17.25 -1.56 -17.26 -1.5 -17.17 -1.45 -17.28 -1.39 -17.31 -1.32 -17.19 -1.29 -17.34 -1.21 -17.33 -1.16 -17.36 -1.1 -17.37 -1.04 -17.38 -0.98 -17.39 -0.92 -17.29 -0.87 -17.42 -0.81 -17.53 -0.74 -17.45 -0.69 -17.35 -0.63 -17.47 -0.57 -17.58 -0.51 -17.49 -0.45 -17.5 -0.39 -17.51 -0.33 -17.53 -0.27 -17.54 -0.21 -17.54 -0.15 -17.67 -0.09 -17.57 -0.03 -17.58 709.3 0 0.03 15.2 0.07 15.19 0.13 15.05 0.19 15.16 0.23 15.14 0.29 15.13 0.33 15.11 0.39 15.1 0.43 15.07 0.49 14.96 0.55 15.05 0.59 15.15 0.64 15.01 0.69 14.89 0.75 15 0.8 15.07 0.84 14.97 0.9 14.94 0.94 14.93 1 14.9 1.05 14.89 1.09 14.88 1.16 14.97 1.19 14.85 1.25 14.82 1.3 14.93 1.34 14.78 1.39 14.79 1.44 14.75 1.5 14.75 1.55 14.85 1.59 14.74zm0 0c21.35,194.7 -119.18,369.85 -313.88,391.2 -194.7,21.35 -369.85,-119.18 -391.2,-313.88l705.08 -77.32z"/>
   </g>
   <g>
    <path class="fil0" d="M16783.32 12673.36c-195.69,-8.15 -347.73,-173.41 -339.58,-369.1 8.15,-195.69 173.41,-347.73 369.1,-339.58l-29.52 708.68zm113.96 -706.93l0 709.3 0 0 -7.08 -0.01 -7.08 -0.02 -7.37 -0.05 -7.07 -0.07 -7.07 -0.08 -7.36 -0.1 -7.06 -0.13 -6.78 -0.13 -7.36 -0.16 -7.34 -0.18 -6.76 -0.19 -7.06 -0.21 -7.33 -0.23 -7.05 -0.25 -7.04 -0.27 -7.15 -0.29 29.52 -708.68 5.19 0.21 5.3 0.19 5.31 0.19 5.03 0.17 5.32 0.15 5.62 0.15 5.04 0.14 5.04 0.1 5.64 0.11 5.34 0.09 5.06 0.08 5.37 0.06 5.35 0.05 5.09 0.03 5.36 0.02 5.38 0.01 0 0zm2009.44 -2009.41l709.3 0 0 0 -3.54 139.32 -10.52 137.75 -17.36 135.9 -24.01 133.81 -30.48 131.5 -36.78 129.03 -42.89 126.36 -48.84 123.49 -54.6 120.45 -60.19 117.23 -65.58 113.82 -70.8 110.26 -75.85 106.54 -80.74 102.65 -85.46 98.61 -89.99 94.37 -94.38 90 -98.61 85.46 -102.65 80.73 -106.53 75.85 -110.28 70.81 -113.83 65.57 -117.21 60.18 -120.45 54.6 -123.49 48.84 -126.36 42.9 -129.05 36.77 -131.49 30.48 -133.8 24.01 -135.91 17.36 -137.75 10.52 -139.32 3.54 0 -709.3 103.36 -2.64 101.83 -7.78 100.25 -12.8 98.62 -17.71 96.93 -22.46 95.07 -27.11 93.12 -31.62 91.07 -36.02 88.89 -40.3 86.61 -44.46 84.17 -48.49 81.58 -52.39 78.91 -56.19 76.07 -59.83 73.09 -63.34 69.98 -66.74 66.75 -69.99 63.34 -73.07 59.82 -76.07 56.19 -78.9 52.4 -81.62 48.5 -84.16 44.45 -86.59 40.3 -88.89 36.02 -91.07 31.63 -93.12 27.1 -95.07 22.46 -96.92 17.71 -98.63 12.8 -100.24 7.78 -101.83 2.64 -103.36 0 0zm-2009.44 -2009.42l0 -709.3 0 0 139.32 3.54 137.75 10.52 135.91 17.36 133.8 24.01 131.49 30.48 129.05 36.77 126.36 42.9 123.49 48.84 120.45 54.6 117.21 60.18 113.83 65.57 110.28 70.81 106.54 75.86 102.65 80.74 98.59 85.44 94.38 90 90.01 94.38 85.45 98.61 80.74 102.64 75.85 106.55 70.8 110.25 65.58 113.84 60.18 117.22 54.61 120.44 48.84 123.51 42.89 126.35 36.78 129.03 30.48 131.5 24.01 133.81 17.36 135.9 10.52 137.75 3.54 139.32 -709.3 0 -2.64 -103.36 -7.78 -101.83 -12.8 -100.24 -17.71 -98.63 -22.46 -96.92 -27.1 -95.07 -31.63 -93.13 -36.02 -91.07 -40.29 -88.88 -44.46 -86.6 -48.5 -84.16 -52.4 -81.61 -56.19 -78.91 -59.82 -76.06 -63.35 -73.09 -66.73 -69.98 -69.98 -66.72 -73.11 -63.36 -76.07 -59.84 -78.9 -56.18 -81.58 -52.39 -84.17 -48.49 -86.61 -44.46 -88.89 -40.3 -91.07 -36.02 -93.12 -31.62 -95.07 -27.11 -96.93 -22.46 -98.62 -17.71 -100.25 -12.8 -101.83 -7.78 -103.36 -2.64 0 0zm-319.81 25.48l-112.74 -700.28 13.2 -2.09 13.24 -2.04 13.41 -1.99 13.25 -1.89 13.29 -1.84 13.29 -1.76 13.3 -1.71 13.48 -1.66 13.36 -1.57 13.35 -1.51 13.51 -1.46 13.53 -1.39 13.4 -1.31 13.41 -1.24 13.56 -1.19 13.45 -1.11 13.59 -1.06 13.6 -0.99 13.49 -0.91 13.63 -0.85 13.5 -0.78 13.66 -0.73 13.67 -0.64 13.54 -0.58 13.84 -0.53 13.71 -0.43 13.56 -0.38 13.72 -0.31 13.74 -0.24 13.74 -0.17 13.76 -0.11 13.77 -0.03 0 709.3 -10.21 0.03 -10.2 0.07 -10.18 0.13 -10.16 0.18 -10.14 0.23 -10.28 0.28 -10.11 0.33 -9.94 0.37 -10.22 0.44 -10.05 0.48 -10.04 0.53 -10.16 0.58 -10.01 0.63 -10.11 0.69 -9.96 0.71 -9.95 0.78 -10.07 0.83 -9.9 0.87 -10.05 0.94 -10 0.97 -9.85 1.01 -9.83 1.06 -9.97 1.13 -9.92 1.17 -9.76 1.2 -9.9 1.27 -9.89 1.32 -9.85 1.36 -9.85 1.41 -9.67 1.43 -9.78 1.5 -9.8 1.55zm0 0c-193.37,31.13 -375.38,-100.4 -406.51,-293.77 -31.13,-193.37 100.4,-375.38 293.77,-406.51l112.74 700.28z"/>
   </g>
   <g>
    <path class="fil0" d="M5271.72 12673.67c-195.86,0 -354.65,-158.79 -354.65,-354.65 0,-195.86 158.79,-354.65 354.65,-354.65l0 709.3zm11526.36 0l-11526.36 0 0 -709.3 11526.36 0 0 709.3zm0 -709.3c195.86,0 354.65,158.79 354.65,354.65 0,195.86 -158.79,354.65 -354.65,354.65l0 -709.3z"/>
   </g>
  </g>
  <path class="fil1" d="M1281.14 13605.74l0 2390.57 1348.53 0c107.05,0 189.6,25.98 246.98,77.97 58.08,52.74 86.38,118.51 86.38,197.23 0,80.28 -28.3,146.03 -84.89,195.72 -56.55,49.69 -139.89,74.92 -248.47,74.92l-1606.17 0c-144.51,0 -248.46,-32.11 -311.93,-96.34 -63.46,-64.2 -95.54,-168.18 -95.54,-311.13l0 -2528.94c0,-133.78 30.6,-234.7 90.95,-301.99 60.43,-67.28 139.93,-100.89 238.56,-100.89 99.38,0 180.4,32.86 242.34,99.38 61.91,66.5 93.26,168.18 93.26,303.5z"/>
  <path class="fil1" d="M4945.32 16252.41l0 -78.75c-73.36,92.51 -149.83,170.47 -230.87,233.17 -80.24,62.69 -168.16,109.34 -263.71,139.91 -95.61,30.59 -204.14,45.86 -326.48,45.86 -148.28,0 -280.55,-30.57 -397.5,-91.73 -116.97,-61.16 -207.96,-145.25 -272.19,-253.05 -75.65,-129.97 -113.9,-316.5 -113.9,-560.38l0 -1210.94c0,-123.1 27.54,-214.07 82.57,-274.47 55.06,-60.38 128.42,-90.97 219.39,-90.97 91.75,0 166.66,30.59 223.26,91.75 56.57,61.16 84.87,152.13 84.87,273.69l0 978.53c0,141.44 12.2,260.71 35.91,357.02 23.71,96.34 66.52,172.01 128.42,226.29 61.93,54.28 146.02,81.8 252.31,81.8 103.17,0 200.29,-30.57 291.25,-91.73 90.97,-61.16 157.47,-141.44 199.56,-240.04 34.37,-86.39 51.2,-275.99 51.2,-568.8l0 -743.07c0,-121.56 28.3,-212.53 84.85,-273.69 57.33,-61.16 131.49,-91.75 222.46,-91.75 90.99,0 164.37,30.59 219.4,90.97 55.82,60.4 83.36,151.37 83.36,274.47l0 1771.32c0,116.2 -26.76,203.36 -79.5,262.22 -53.55,58.09 -121.56,87.14 -205.68,87.14 -83.31,0 -152.88,-30.56 -207.18,-90.96 -54.26,-60.41 -81.8,-145.25 -81.8,-253.81z"/>
  <path class="fil1" d="M8161.56 15399.24l0 812.65c0,128.44 -29.05,224.75 -87.16,288.98 -58.09,64.21 -135.3,96.31 -230.1,96.31 -92.5,0 -167.42,-32.1 -224.75,-96.31 -57.35,-64.23 -86.43,-160.54 -86.43,-288.98l0 -973.97c0,-154.42 -5.34,-273.69 -16.05,-358.54 -9.91,-84.87 -38.18,-155.2 -84.82,-209.48 -46.65,-54.28 -119.27,-81.8 -220.17,-81.8 -200.31,0 -331.82,68.8 -395.27,206.41 -63.45,136.86 -95.53,334.09 -95.53,590.97l0 826.41c0,126.9 -29.06,223.24 -86.41,288.2 -57.33,64.99 -133.03,97.09 -226.29,97.09 -92.5,0 -168.2,-32.1 -227.04,-97.09 -58.87,-64.96 -88.7,-161.3 -88.7,-288.2l0 -1749.15c0,-114.68 26.78,-202.6 79.52,-262.22 52.72,-59.65 122.3,-89.46 208.68,-89.46 84.09,0 153.67,28.3 209.48,84.09 55.82,55.81 84.11,133.03 84.11,231.65l0 58.09c105.51,-126.9 219.39,-220.17 340.17,-279.79 120.8,-59.64 255.34,-89.45 402.88,-89.45 154.45,0 285.94,30.59 396.79,91.75 110.87,61.15 201.84,153.66 272.93,277.49 103.19,-125.37 214.04,-217.87 331.8,-278.27 117.7,-60.38 248.46,-90.97 392.17,-90.97 167.42,0 311.13,32.88 431.94,98.62 120.78,65.75 211.75,159.77 271.42,282.11 51.96,110.07 77.96,284.37 77.96,521.37l0 1194.14c0,128.44 -29.05,224.75 -87.16,288.98 -58.11,64.21 -135.32,96.31 -230.09,96.31 -92.51,0 -168.23,-32.1 -227.07,-97.09 -58.87,-64.96 -88.7,-161.3 -88.7,-288.2l0 -1028.25c0,-131.49 -5.35,-236.22 -16.79,-315.72 -11.46,-78.75 -41.3,-145.25 -90.97,-199.53 -48.96,-53.52 -123.87,-80.29 -223.99,-80.29 -81.07,0 -157.52,23.72 -230.14,71.87 -71.85,47.4 -128.42,111.61 -168.94,192.65 -45.13,102.44 -67.28,285.15 -67.28,546.62z"/>
  <path class="fil1" d="M10798.29 14458.15l0 1767.5c0,122.31 -29.07,214.82 -87.16,277.52 -58.13,62.67 -131.51,94.01 -220.94,94.01 -89.44,0 -162.06,-32.1 -217.88,-96.31 -55.84,-64.23 -84.11,-155.96 -84.11,-275.22l0 -1749.15c0,-121.56 28.27,-212.53 84.11,-273.69 55.82,-61.16 128.44,-91.75 217.88,-91.75 89.43,0 162.81,30.59 220.94,91.75 58.09,61.16 87.16,146.78 87.16,255.34zm-302 -631.49l0 0c-84.83,0 -157.45,-25.98 -217.88,-77.96 -60.37,-51.99 -90.21,-126.15 -90.21,-221.71 0,-85.62 30.57,-156.71 92.51,-212.53 61.93,-55.81 133.78,-84.09 215.58,-84.09 79.5,0 149.07,25.23 210.26,75.68 61.15,51.23 91.74,124.61 91.74,220.94 0,94.05 -29.83,167.43 -89.45,220.17 -59.62,52.76 -129.95,79.5 -212.55,79.5z"/>
  <path class="fil1" d="M11984.79 14448.98l0 74.14c107.76,-142.2 225.49,-246.15 353.17,-312.68 127.66,-66.5 274.45,-99.38 440.33,-99.38 161.3,0 305.01,35.18 432.7,105.51 126.9,69.57 221.7,168.96 284.42,297.37 40.49,74.92 66.5,155.2 78.7,242.34 11.49,86.41 17.59,196.48 17.59,331.04l0 1138.33c0,122.31 -28.25,214.82 -84.09,277.52 -55.8,62.67 -129.18,94.01 -218.63,94.01 -90.97,0 -165.13,-32.1 -222.46,-96.31 -56.6,-64.23 -84.89,-155.96 -84.89,-275.22l0 -1019.84c0,-201.06 -28.28,-355.48 -84.09,-462.5 -55.77,-106.27 -167.4,-159.79 -334.83,-159.79 -108.55,0 -207.96,32.1 -298.15,97.09 -89.41,64.99 -155.18,154.42 -196.48,268.35 -29.79,90.97 -45.06,260.68 -45.06,510.66l0 766.03c0,123.85 -29.05,216.36 -86.4,278.27 -57.33,61.92 -131.49,93.26 -221.71,93.26 -87.92,0 -160.54,-32.1 -217.14,-96.31 -56.54,-64.23 -84.82,-155.96 -84.82,-275.22l0 -1767.5c0,-116.22 25.2,-203.36 75.65,-260.71 51.23,-57.33 120.05,-86.38 207.97,-86.38 53.52,0 102.43,13 145.22,38.23 43.6,25.22 78.02,63.45 104,113.9 26,50.47 39,113.14 39,185.79z"/>
  <path class="fil1" d="M15727.68 16252.41l0 -78.75c-73.38,92.51 -149.84,170.47 -230.86,233.17 -80.28,62.69 -168.2,109.34 -263.73,139.91 -95.6,30.59 -204.16,45.86 -326.45,45.86 -148.33,0 -280.59,-30.57 -397.54,-91.73 -116.95,-61.16 -207.92,-145.25 -272.18,-253.05 -75.67,-129.97 -113.88,-316.5 -113.88,-560.38l0 -1210.94c0,-123.1 27.5,-214.07 82.53,-274.47 55.06,-60.38 128.44,-90.97 219.44,-90.97 91.72,0 166.64,30.59 223.21,91.75 56.6,61.16 84.89,152.13 84.89,273.69l0 978.53c0,141.44 12.2,260.71 35.91,357.02 23.72,96.34 66.51,172.01 128.42,226.29 61.96,54.28 146.05,81.8 252.29,81.8 103.22,0 200.31,-30.57 291.28,-91.73 90.99,-61.16 157.49,-141.44 199.55,-240.04 34.4,-86.39 51.18,-275.99 51.18,-568.8l0 -743.07c0,-121.56 28.3,-212.53 84.9,-273.69 57.32,-61.16 131.46,-91.75 222.45,-91.75 90.97,0 164.35,30.59 219.39,90.97 55.84,60.4 83.33,151.37 83.33,274.47l0 1771.32c0,116.2 -26.76,203.36 -79.5,262.22 -53.5,58.09 -121.54,87.14 -205.63,87.14 -83.33,0 -152.93,-30.56 -207.18,-90.96 -54.28,-60.41 -81.82,-145.25 -81.82,-253.81z"/>
  <path class="fil1" d="M16911.88 16225.65l0 -2651.26c0,-122.31 27.54,-214.82 81.8,-277.52 54.28,-62.69 127.71,-94.01 220.16,-94.01 91.75,0 166.67,31.32 223.27,93.26 56.57,61.91 84.84,154.42 84.84,278.27l0 2651.26c0,123.85 -29.05,216.36 -86.4,278.27 -57.33,61.92 -131.49,93.26 -221.71,93.26 -89.4,0 -162.03,-32.1 -217.84,-96.31 -55.84,-64.23 -84.12,-155.96 -84.12,-275.22z"/>
  <path class="fil1" d="M19700.01 16253.95c-148.34,114.65 -291.3,200.28 -428.89,257.61 -138.39,57.35 -293.54,85.62 -464.79,85.62 -156.72,0 -295.11,-31.34 -413.6,-93.26 -118.51,-61.91 -210.26,-145.25 -274.47,-251.51 -64.23,-106.27 -96.31,-220.95 -96.31,-344.8 0,-167.42 52.72,-309.6 159.01,-427.33 106.24,-118.51 252.27,-197.26 438.06,-237.78 38.2,-9.17 134.56,-29.03 288.23,-60.38 153.61,-31.34 285.91,-59.64 395.2,-86.38 109.36,-26 228.6,-57.35 357.02,-94.8 -7.61,-161.32 -39.74,-279.81 -97.09,-354.73 -58.06,-75.69 -176.6,-113.14 -357.76,-113.14 -155.22,0 -272.17,21.39 -350.14,64.96 -78.75,42.82 -146.03,107.81 -201.84,194.97 -55.79,86.38 -95.53,142.95 -118.49,171.23 -23.71,27.54 -73.38,41.3 -149.05,41.3 -68.84,0 -128.47,-22.18 -178.14,-66.53 -49.71,-43.57 -74.91,-100.14 -74.91,-168.93 0,-107.8 38.22,-212.53 113.87,-314.21 76.46,-101.68 194.97,-185.01 356.27,-250.76 161.3,-65.74 362.39,-98.63 603.17,-98.63 268.36,0 480.11,32.11 633.78,95.56 153.66,63.45 262.22,163.62 325.7,301.23 63.45,137.59 95.53,319.55 95.53,546.59 0,143.74 -0.76,265.3 -1.52,365.44 -0.78,100.14 -1.53,211.75 -3.07,334.07 0,114.68 19.13,234.7 57.33,359.31 38.25,123.86 56.59,204.14 56.59,240.05 0,62.7 -29.05,120.05 -87.91,171.25 -59.63,51.23 -126.15,77.21 -201.07,77.21 -62.69,0 -124.63,-29.05 -185.79,-87.92 -61.16,-58.86 -126.12,-143.71 -194.92,-255.31zm-40.54 -886.06l0 0c-89.41,32.86 -219.39,68.04 -390.64,103.97 -170.5,36.69 -288.96,64.21 -354.7,81.04 -65.77,17.57 -128.44,51.21 -188.11,100.9 -59.62,50.48 -89.41,120.03 -89.41,210.24 0,92.51 35.15,171.25 105.51,236.24 69.52,64.97 161.3,97.85 275.2,97.85 120.8,0 232.39,-26.76 334.06,-79.5 102.46,-53.53 177.38,-121.56 225.56,-205.65 55.04,-92.51 82.53,-245.42 82.53,-457.95l0 -87.14z"/>
  <path class="fil1" d="M10242.1 13733.56c138.49,138.47 363.05,138.47 501.49,0 138.51,-138.48 138.51,-363 0,-501.48 -138.49,-138.49 -363,-138.49 -501.49,0 -138.44,138.46 -138.44,363 0,501.48z"/>
  <path class="fil1" d="M19261.37 9957.02c0,-1302.09 -1062,-2364.07 -2364.09,-2364.07 -127.97,0 -253.63,10.26 -376.18,29.99 227.54,-552.83 353.15,-1157.69 353.15,-1790.94 0,-2604.17 -2123.98,-4728.13 -4728.08,-4728.13 -2604.14,0 -4728.11,2123.96 -4728.11,4728.13 0,174.89 9.59,347.63 28.24,517.68 -608.25,-549.25 -1413.28,-884.39 -2294.06,-884.39 -1887.98,0 -3427.88,1539.87 -3427.88,3427.89 0,1888.01 1539.9,3427.9 3427.88,3427.9 39.99,0 79.84,-0.69 119.48,-2.06l11526.36 0c32.89,1.37 65.97,2.06 99.2,2.06 1302.09,0 2364.09,-1061.98 2364.09,-2364.06z"/>
  <g>
   <path class="fil2" d="M11821.31 11742.99c149.14,99.92 189.04,301.84 89.12,450.98 -99.92,149.14 -301.84,189.04 -450.98,89.12l361.86 -540.1zm-2298.31 528.42l-355.34 -544.4 76.32 -47.82 77.68 -44.73 78.92 -41.61 80.07 -38.51 81.09 -35.36 82.05 -32.26 82.92 -29.13 83.67 -26 84.37 -22.89 84.95 -19.75 85.45 -16.64 85.88 -13.51 86.18 -10.39 86.44 -7.27 86.58 -4.15 86.64 -1.04 86.65 2.08 86.52 5.2 86.33 8.31 86.09 11.43 85.69 14.55 85.23 17.66 84.72 20.78 84.08 23.89 83.36 27.01 82.57 30.14 81.63 33.23 80.67 36.34 79.6 39.47 78.42 42.56 77.14 45.66 75.74 48.73 -361.86 540.1 -55.42 -35.65 -56.32 -33.34 -57.22 -31.06 -58.04 -28.77 -58.83 -26.5 -59.57 -24.25 -60.19 -21.96 -60.78 -19.69 -61.32 -17.43 -61.78 -15.16 -62.23 -12.88 -62.53 -10.63 -62.79 -8.33 -63.05 -6.07 -63.18 -3.8 -63.23 -1.52 -63.28 0.76 -63.22 3.03 -63.08 5.31 -62.92 7.59 -62.66 9.85 -62.33 12.14 -61.97 14.41 -61.53 16.69 -61.03 18.96 -60.44 21.23 -59.83 23.52 -59.15 25.8 -58.39 28.07 -57.58 30.37 -56.72 32.65 -55.84 34.98zm0 0c-150.33,98.12 -351.75,55.8 -449.87,-94.53 -98.12,-150.33 -55.8,-351.75 94.53,-449.87l355.34 544.4z"/>
  </g>
  <g>
   <path class="fil2" d="M12637.93 10882.62c144.92,105.95 176.51,309.34 70.56,454.26 -105.95,144.92 -309.34,176.51 -454.26,70.56l383.7 -524.82zm-3906.53 524.83l-383.68 -524.84 120.99 -84.75 123.55 -79.32 125.95 -73.89 128.15 -68.41 130.16 -62.96 132.03 -57.48 133.68 -52 135.2 -46.54 136.53 -41.05 137.69 -35.57 138.69 -30.11 139.52 -24.62 140.16 -19.15 140.66 -13.68 141 -8.22 141.17 -2.73 141.16 2.74 141 8.21 140.66 13.68 140.16 19.15 139.52 24.62 138.69 30.11 137.68 35.57 136.53 41.05 135.2 46.54 133.68 52.01 132.02 57.47 130.15 62.96 128.14 68.41 125.95 73.89 123.56 79.32 120.98 84.76 -383.7 524.82 -99.52 -69.72 -101.52 -65.18 -103.41 -60.67 -105.18 -56.15 -106.83 -51.66 -108.32 -47.17 -109.7 -42.67 -110.94 -38.18 -112.05 -33.69 -113.04 -29.21 -113.85 -24.71 -114.56 -20.22 -115.14 -15.73 -115.54 -11.24 -115.82 -6.75 -115.96 -2.24 -115.97 2.25 -115.82 6.74 -115.54 11.24 -115.14 15.73 -114.56 20.22 -113.87 24.71 -113.03 29.21 -112.05 33.69 -110.94 38.18 -109.72 42.68 -108.33 47.16 -106.82 51.66 -105.19 56.15 -103.41 60.67 -101.53 65.18 -99.53 69.73zm0 0c-144.92,105.95 -348.3,74.35 -454.25,-70.58 -105.95,-144.93 -74.35,-348.31 70.57,-454.26l383.68 524.84z"/>
  </g>
  <g>
   <path class="fil2" d="M13411.89 10031.79c138.34,114.41 157.75,319.32 43.34,457.66 -114.41,138.34 -319.32,157.75 -457.66,43.34l414.32 -501zm-5423.78 501.01l-414.32 -500.98 160.83 -127.12 165.07 -118.98 169 -110.81 172.64 -102.62 175.98 -94.43 179.04 -86.22 181.81 -78.01 184.3 -69.8 186.5 -61.57 188.43 -53.37 190.06 -45.15 191.43 -36.94 192.55 -28.72 193.34 -20.52 193.89 -12.31 194.16 -4.11 194.17 4.11 193.89 12.31 193.34 20.52 192.54 28.72 191.45 36.93 190.07 45.16 188.41 53.35 186.51 61.58 184.3 69.8 181.81 78.01 179.03 86.21 175.99 94.42 172.65 102.63 168.99 110.81 165.09 118.98 160.83 127.11 -414.32 501 -138.27 -109.29 -141.75 -102.16 -145.03 -95.09 -148.07 -88.01 -150.91 -80.96 -153.53 -73.93 -155.89 -66.89 -158.02 -59.84 -159.95 -52.8 -161.63 -45.77 -163.07 -38.74 -164.27 -31.69 -165.24 -24.66 -165.96 -17.6 -166.47 -10.57 -166.69 -3.53 -166.68 3.53 -166.47 10.57 -165.96 17.6 -165.23 24.66 -164.27 31.7 -163.08 38.73 -161.63 45.77 -159.94 52.81 -158.02 59.84 -155.89 66.89 -153.52 73.92 -150.9 80.97 -148.08 88.02 -145.02 95.09 -141.75 102.16 -138.27 109.28zm0 0c-138.34,114.41 -343.24,95.01 -457.65,-43.33 -114.41,-138.34 -95.01,-343.24 43.33,-457.65l414.32 500.98z"/>
  </g>
 </g>
</svg>
